<?xml version="1.0" encoding="UTF-8"?>
<svg version="1.1" xmlns="http://www.w3.org/2000/svg" width="216" height="216">
<path d="M0 0 C24.42 0 48.84 0 74 0 C73.00717399 3.97130405 71.91485102 5.87422576 69.625 9.1875 C66.21972575 14.18595613 62.89599771 19.22517716 59.625 24.3125 C56.00607575 29.92863697 52.34168922 35.51061655 48.625 41.0625 C47.80978239 42.2889871 46.99467296 43.51554612 46.1796875 44.7421875 C44.87106485 46.69808587 43.54759159 48.64433925 42.1953125 50.5703125 C40.5975374 52.82542028 40.5975374 52.82542028 39 56 C40.66877359 60.57820607 44.11409498 63.92962148 48.3125 66.3125 C53.74041424 69.72072522 57.91251691 74.72480644 62.0546875 79.5625 C66.85173747 85.07314481 72.06462035 90.17223282 77.25 95.3125 C78.25284017 96.31030974 79.25544582 97.30835524 80.2578125 98.30664062 C82.08743284 100.12816884 83.91863841 101.94804615 85.75097656 103.7668457 C88 106 88 106 89.37524414 107.76953125 C92.01615676 109.76956124 94.60192787 109.44307865 97.85546875 109.51171875 C98.84792351 109.53864555 98.84792351 109.53864555 99.86042786 109.56611633 C101.96938747 109.62020898 104.07812099 109.65410931 106.1875 109.6875 C107.61917208 109.72067427 109.05081433 109.75516405 110.48242188 109.79101562 C113.9880639 109.87593257 117.49378473 109.94274921 121 110 C121.46676617 117.26930925 121.46676617 117.26930925 119.41796875 120.4765625 C118.31388672 121.54003906 118.31388672 121.54003906 117.1875 122.625 C113.37249498 126.52358885 109.94006747 130.49448515 106.625 134.8125 C101.28293655 141.71591415 95.68629535 148.3788205 90 155 C85.30172816 154.54020471 83.34045258 152.80191125 80.125 149.4375 C79.24972656 148.52613281 78.37445313 147.61476562 77.47265625 146.67578125 C74.89719465 143.88874934 72.37419088 141.07038114 69.90234375 138.19140625 C67.51748486 135.44416633 65.07846344 132.74832605 62.625 130.0625 C62.15650635 129.54880859 61.6880127 129.03511719 61.20532227 128.50585938 C57.57586981 124.55669476 53.78884832 120.8020453 49.875 117.1328125 C47.66630601 114.62042309 46.47549045 111.99346884 45 109 C40.22809839 102.87502671 34.52896853 97.44265711 29.0625 91.9375 C28.4948291 91.36507568 27.9271582 90.79265137 27.34228516 90.20288086 C24.44685379 87.23792737 24.44685379 87.23792737 21 85 C20.72792725 85.56847656 20.45585449 86.13695313 20.17553711 86.72265625 C18.96756273 89.06284006 17.62684358 91.22977923 16.19140625 93.4375 C15.33131958 94.76068237 15.33131958 94.76068237 14.45385742 96.1105957 C13.5176355 97.54085083 13.5176355 97.54085083 12.5625 99 C11.59050659 100.48729614 11.59050659 100.48729614 10.59887695 102.00463867 C5.03261898 110.48858227 -0.62304939 118.91084087 -6.3125 127.3125 C-6.73199921 127.93326416 -7.15149841 128.55402832 -7.58370972 129.19360352 C-8.77852971 130.96023377 -9.97654841 132.72464445 -11.17578125 134.48828125 C-11.86583252 135.50446533 -12.55588379 136.52064941 -13.2668457 137.56762695 C-15 140 -15 140 -17 142 C-20.06761169 142.29193115 -20.06761169 142.29193115 -24.06420898 142.35058594 C-24.79119995 142.36384415 -25.51819092 142.37710236 -26.26721191 142.39076233 C-28.67679925 142.43193463 -31.08629591 142.45860815 -33.49609375 142.484375 C-35.16757512 142.50815936 -36.83904839 142.53251993 -38.51051331 142.55743408 C-42.01680645 142.60739842 -45.52309644 142.65017266 -49.02954102 142.68798828 C-53.52692063 142.73709164 -58.02381766 142.80420065 -62.52087307 142.87673569 C-65.97369958 142.9304006 -69.42659746 142.97438665 -72.8795948 143.01544952 C-74.53785342 143.03636527 -76.19607637 143.06033694 -77.85424614 143.08739471 C-80.17164089 143.12378121 -82.48880925 143.14711901 -84.80639648 143.16699219 C-86.78590553 143.19125275 -86.78590553 143.19125275 -88.80540466 143.21600342 C-92 143 -92 143 -95 141 C-93.48161487 138.54297679 -91.93422444 136.11596683 -90.33984375 133.70703125 C-88.51435669 130.9076354 -86.94117076 128.02779575 -85.37890625 125.07421875 C-79.44181045 114.48992002 -79.44181045 114.48992002 -75 111 C-71.46021214 110.08238301 -68.18684059 110.28253577 -64.5625 110.5625 C-57.83856591 111.12202789 -57.83856591 111.12202789 -51.9140625 108.41162109 C-47.74449974 103.71978167 -44.68958424 98.29462255 -41.62841797 92.84033203 C-39.02543991 88.30014511 -36.06331612 84.01485326 -33.125 79.6875 C-31.96247666 77.93560208 -30.80103258 76.18298755 -29.640625 74.4296875 C-25.79915777 68.66748666 -21.84382646 62.9874364 -17.875 57.3125 C-11.54293384 48.25399037 -5.31923346 39.13561956 0.74414062 29.89501953 C1.91889236 28.12238676 3.11800078 26.36969179 4.328125 24.62109375 C4.98296875 23.65300781 5.6378125 22.68492188 6.3125 21.6875 C6.86550781 20.88699219 7.41851562 20.08648437 7.98828125 19.26171875 C9.31895949 16.28695928 9.09743732 15.05515391 8 12 C6.16803927 9.08124518 6.16803927 9.08124518 3.9375 6.25 C0 1.07381371 0 1.07381371 0 0 Z " fill="#DFDEDC" transform="translate(95,35)"/>
<path d="M0 0 C0.66 0 1.32 0 2 0 C3.375 1.6171875 3.375 1.6171875 5 3.875 C8.4423029 8.44322281 12.25768476 12.38609471 16.375 16.34765625 C19.08651582 19.08741703 21.59536731 21.9447969 24.11767578 24.85717773 C27.3046784 28.48523506 30.62382006 31.98795452 33.9375 35.5 C34.96327148 36.59054688 34.96327148 36.59054688 36.00976562 37.703125 C37.67194507 39.46991714 39.33536639 41.23552048 41 43 C44.71563534 41.76145489 45.59458591 40.30982822 48 37.25 C48.79535156 36.25226563 49.59070313 35.25453125 50.41015625 34.2265625 C50.83184082 33.69708008 51.25352539 33.16759766 51.68798828 32.62207031 C53.88234662 29.90913455 56.16578114 27.27313156 58.4375 24.625 C63.86613187 18.26486752 68.96468372 11.67370552 74 5 C74.734375 6.7265625 74.734375 6.7265625 75 9 C73.515625 11.0859375 73.515625 11.0859375 71.25 13.375 C67.46117582 17.36910103 63.98400389 21.45187813 60.625 25.8125 C55.2816572 32.71499161 49.68635866 39.37874679 44 46 C39.30172816 45.54020471 37.34045258 43.80191125 34.125 40.4375 C33.24972656 39.52613281 32.37445313 38.61476562 31.47265625 37.67578125 C28.89719465 34.88874934 26.37419088 32.07038114 23.90234375 29.19140625 C21.51748013 26.44416089 19.07823656 23.74853769 16.625 21.0625 C16.15723145 20.54880859 15.68946289 20.03511719 15.20751953 19.50585938 C11.56255199 15.53502142 7.74073412 11.78801881 3.77734375 8.1328125 C1.64437725 5.5732527 0.87682477 3.18927972 0 0 Z " fill="#4D4D4D" transform="translate(141,144)"/>
<path d="M0 0 C3.88949634 0.55313379 5.62670023 2.28128993 8.3125 5.0625 C9.38951172 6.16271484 9.38951172 6.16271484 10.48828125 7.28515625 C12.40733384 9.35940438 14.25302599 11.45677694 16.08984375 13.6015625 C20.87446492 19.09945918 26.07723145 24.1847342 31.25 29.3125 C32.25284017 30.31030974 33.25544582 31.30835524 34.2578125 32.30664062 C36.08743284 34.12816884 37.91863841 35.94804615 39.75097656 37.7668457 C42 40 42 40 43.37524414 41.76953125 C46.01615676 43.76956124 48.60192787 43.44307865 51.85546875 43.51171875 C52.51710526 43.52966995 53.17874176 43.54762115 53.86042786 43.56611633 C55.96938747 43.62020898 58.07812099 43.65410931 60.1875 43.6875 C61.61917208 43.72067427 63.05081433 43.75516405 64.48242188 43.79101562 C67.9880639 43.87593257 71.49378473 43.94274921 75 44 C75 44.33 75 44.66 75 45 C70.42872198 45.19886761 65.8599965 45.34341878 61.28540039 45.43945312 C59.73221961 45.47950603 58.17933715 45.53397031 56.62719727 45.60351562 C43.8168905 46.16280992 43.8168905 46.16280992 39.76611328 43.5703125 C38.12890625 41.65625 38.12890625 41.65625 36.65063477 39.45117188 C34.65067701 36.48125975 32.31200593 34.18693045 29.75 31.6875 C28.80145448 30.74803034 27.85354467 29.80791842 26.90625 28.8671875 C25.93780877 27.91114545 24.96905721 26.95541767 24 26 C17.76904981 19.85675085 11.64805573 13.69233587 6 7 C4.85460386 5.66629108 3.70878579 4.33294437 2.5625 3 C1.716875 2.01 0.87125 1.02 0 0 Z " fill="#464545" transform="translate(141,101)"/>
<path d="M0 0 C0.45890625 0.40992188 0.9178125 0.81984375 1.390625 1.2421875 C2.00421875 1.78101563 2.6178125 2.31984375 3.25 2.875 C3.85328125 3.40867188 4.4565625 3.94234375 5.078125 4.4921875 C6.97418746 5.9797487 8.81290005 7.00322436 11 8 C12.32 6.68 13.64 5.36 15 4 C14.25 8.75 14.25 8.75 12 11 C7.59343991 10.77346043 5.63434973 9.08413616 2.6875 5.9375 C1.99011719 5.20402344 1.29273438 4.47054687 0.57421875 3.71484375 C0.05472656 3.14894531 -0.46476563 2.58304688 -1 2 C-0.67 1.34 -0.34 0.68 0 0 Z " fill="#5B5B5A" transform="translate(173,179)"/>
<path d="M0 0 C0.765625 1.6875 0.765625 1.6875 1 4 C-0.765625 6.4375 -0.765625 6.4375 -3.25 9 C-6.02772148 11.90156893 -8.66603828 14.72639135 -11 18 C-11.99 17.67 -12.98 17.34 -14 17 C-13.49210938 16.443125 -12.98421875 15.88625 -12.4609375 15.3125 C-8.02251729 10.39200419 -3.86971686 5.37949276 0 0 Z " fill="#5D5A5A" transform="translate(215,149)"/>
<path d="M0 0 C0.33 0.99 0.66 1.98 1 3 C0.34 4.32 -0.32 5.64 -1 7 C-8.26 6.67 -15.52 6.34 -23 6 C-23 6.66 -23 7.32 -23 8 C-23.66 7.67 -24.32 7.34 -25 7 C-24.67 6.34 -24.34 5.68 -24 5 C-23.37955811 4.9906543 -22.75911621 4.98130859 -22.11987305 4.97167969 C-19.30827323 4.91799005 -16.4983402 4.83434354 -13.6875 4.75 C-12.71103516 4.73582031 -11.73457031 4.72164062 -10.72851562 4.70703125 C-9.79072266 4.67480469 -8.85292969 4.64257812 -7.88671875 4.609375 C-7.02264404 4.58842773 -6.15856934 4.56748047 -5.26831055 4.54589844 C-2.81664529 4.18488804 -2.81664529 4.18488804 -1.19458008 1.96191406 C-0.60326294 0.9907666 -0.60326294 0.9907666 0 0 Z " fill="#AEADAD" transform="translate(44,141)"/>
<path d="M0 0 C4.03002504 0.53487746 5.90131325 2.52894478 8.6875 5.375 C9.47511719 6.16648437 10.26273438 6.95796875 11.07421875 7.7734375 C13 10 13 10 14 13 C10.12060491 11.41379873 7.66638913 8.90079013 4.75 5.9375 C3.85796875 5.03902344 2.9659375 4.14054687 2.046875 3.21484375 C0 1 0 1 0 0 Z " fill="#403C3C" transform="translate(141,101)"/>
<path d="M0 0 C1 3 1 3 1 5 C-0.1875 6.3125 -0.1875 6.3125 -2 8 C-2.886875 8.886875 -3.77375 9.77375 -4.6875 10.6875 C-5.450625 11.450625 -6.21375 12.21375 -7 13 C-7 9.16235973 -5.73464665 7.88513915 -3.5 4.8125 C-2.8503125 3.91144531 -2.200625 3.01039063 -1.53125 2.08203125 C-1.0259375 1.39496094 -0.520625 0.70789063 0 0 Z " fill="#BCBCBC" transform="translate(15,154)"/>
<path d="M0 0 C0.66 0 1.32 0 2 0 C3.69140625 1.86328125 3.69140625 1.86328125 5.5625 4.3125 C6.18253906 5.11300781 6.80257812 5.91351563 7.44140625 6.73828125 C9 9 9 9 10 12 C5.78247239 10.43795274 3.62600654 7.54865748 1 4 C0.1875 1.625 0.1875 1.625 0 0 Z " fill="#464646" transform="translate(141,144)"/>
<path d="M0 0 C1.12894876 0.93274109 2.25300876 1.87140122 3.375 2.8125 C4.00148437 3.33457031 4.62796875 3.85664063 5.2734375 4.39453125 C7 6 7 6 9 9 C5.40094092 8.44449305 4.00090201 7.25112752 1.75 4.4375 C1.22921875 3.79683594 0.7084375 3.15617188 0.171875 2.49609375 C-0.21484375 2.00238281 -0.6015625 1.50867188 -1 1 C-0.67 0.67 -0.34 0.34 0 0 Z " fill="#595959" transform="translate(151,155)"/>
<path d="M0 0 C0.99 0.33 1.98 0.66 3 1 C1.68775452 4.93673644 0.08089673 7.22719294 -3 10 C-3 8.35 -3 6.7 -3 5 C-2.34 5 -1.68 5 -1 5 C-0.67 3.35 -0.34 1.7 0 0 Z " fill="#B8B6B5" transform="translate(95,146)"/>
<path d="M0 0 C2 3 2 3 2 5 C1.34 5 0.68 5 0 5 C-0.495 5.66 -0.99 6.32 -1.5 7 C-1.995 7.66 -2.49 8.32 -3 9 C-3.66 9 -4.32 9 -5 9 C-3.7508258 5.54074837 -2.32472205 2.85306797 0 0 Z " fill="#AAAAA9" transform="translate(63,113)"/>
<path d="M0 0 C1.98 1.65 3.96 3.3 6 5 C5.34 5.66 4.68 6.32 4 7 C3.01 7 2.02 7 1 7 C0.67 4.69 0.34 2.38 0 0 Z " fill="#CBCACA" transform="translate(148,109)"/>
<path d="M0 0 C2.88437779 1.29299694 4.87219421 2.65941363 7 5 C6.67 5.99 6.34 6.98 6 8 C4.99403703 7.0479279 3.99538437 6.08812654 3 5.125 C2.443125 4.59132813 1.88625 4.05765625 1.3125 3.5078125 C0 2 0 2 0 0 Z " fill="#575757" transform="translate(154,114)"/>
<path d="M0 0 C2.04119788 1.61594832 4.04072937 3.2856382 6 5 C6 5.66 6 6.32 6 7 C2.63279613 5.60667426 1.0140476 4.0210714 -1 1 C-0.67 0.67 -0.34 0.34 0 0 Z " fill="#535454" transform="translate(173,179)"/>
<path d="M0 0 C-1.44253657 3.36591866 -3.33264727 5.51047079 -6 8 C-5.62403791 5.21788056 -5.32681541 3.4120716 -3.5625 1.1875 C-2 0 -2 0 0 0 Z " fill="#474644" transform="translate(194,178)"/>
<path d="M0 0 C0.6875 1.75 0.6875 1.75 1 4 C-0.4375 6.25 -0.4375 6.25 -2 8 C-2.66 7.67 -3.32 7.34 -4 7 C-2.79618552 4.50638429 -1.54571278 2.31856917 0 0 Z " fill="#BDBDBD" transform="translate(51,131)"/>
<path d="M0 0 C0.33 1.32 0.66 2.64 1 4 C-0.65 5.32 -2.3 6.64 -4 8 C-3.40072174 4.64404172 -2.15377564 2.62198774 0 0 Z " fill="#484646" transform="translate(215,149)"/>
</svg>
